<?xml version="1.0" encoding="UTF-8"?>
<svg width="18px" height="18px" viewBox="0 0 18 18" version="1.1" xmlns="http://www.w3.org/2000/svg" xmlns:xlink="http://www.w3.org/1999/xlink">
    <!-- Generator: Sketch 48.2 (47327) - http://www.bohemiancoding.com/sketch -->
    <title>noun_edit_878329</title>
    <desc>Created with Sketch.</desc>
    <defs></defs>
    <g id="Page-1" stroke="none" stroke-width="1" fill="none" fill-rule="evenodd">
        <g id="noun_edit_878329" fill="#FFFFFF" fill-rule="nonzero">
            <g id="Group">
                <path d="M1.079,12.147 L0.852,15.147 C0.843,15.269 0.887,15.389 0.974,15.475 C1.053,15.554 1.16,15.598 1.27,15.598 C1.281,15.598 1.291,15.598 1.302,15.597 L4.304,15.37 C4.404,15.363 4.498,15.319 4.569,15.248 L15.694,4.12 C15.858,3.956 15.858,3.691 15.694,3.527 L12.921,0.754 C12.757,0.59 12.492,0.59 12.328,0.754 L1.2,11.882 C1.129,11.953 1.086,12.047 1.079,12.147 Z M1.903,12.365 L12.624,1.644 L14.804,3.824 L4.084,14.545 L1.724,14.723 L1.903,12.365 Z" id="Shape"></path>
                <path d="M0.644,16.949 C0.644,17.181 0.832,17.368 1.063,17.368 L16.937,17.368 C17.169,17.368 17.356,17.18 17.356,16.949 C17.356,16.717 17.168,16.53 16.937,16.53 L1.063,16.53 C0.831,16.53 0.644,16.718 0.644,16.949 Z" id="Shape"></path>
            </g>
        </g>
    </g>
</svg>