<?xml version="1.0" encoding="UTF-8"?>
<svg width="96px" height="62px" viewBox="0 0 96 62" version="1.1" xmlns="http://www.w3.org/2000/svg" xmlns:xlink="http://www.w3.org/1999/xlink">
    <!-- Generator: Sketch 48.2 (47327) - http://www.bohemiancoding.com/sketch -->
    <title>noun_preview_1389979</title>
    <desc>Created with Sketch.</desc>
    <defs></defs>
    <g id="Page-1" stroke="none" stroke-width="1" fill="none" fill-rule="evenodd">
        <g id="noun_preview_1389979" fill="#FFFFFF" fill-rule="nonzero">
            <g id="Group">
                <path d="M48.065,49.81 C34.549,49.81 23.552,38.806 23.552,25.28 C23.552,11.763 34.549,0.766 48.065,0.766 C61.582,0.766 72.58,11.763 72.58,25.28 C72.58,38.806 61.582,49.81 48.065,49.81 Z M48.065,4.864 C36.808,4.864 27.65,14.021 27.65,25.279 C27.65,36.543 36.808,45.706 48.065,45.706 C59.319,45.706 68.477,36.543 68.477,25.279 C68.477,14.021 59.319,4.864 48.065,4.864 Z" id="Shape"></path>
                <path d="M35.712,25.284 L31.614,25.284 C31.614,16.211 38.992,8.833 48.065,8.833 L48.065,12.931 C41.254,12.931 35.712,18.473 35.712,25.284 Z" id="Shape"></path>
                <path d="M49.651,61.234 C23.364,61.234 2.298,33.408 1.413,32.224 L0.5,30.999 L1.413,29.772 C2.299,28.588 23.364,0.765 49.651,0.765 C76.039,0.765 94.048,28.711 94.804,29.902 L95.499,30.999 L94.804,32.095 C94.049,33.285 76.039,61.234 49.651,61.234 Z M5.672,30.999 C10.028,36.318 28.421,57.131 49.651,57.131 C70.954,57.131 87.017,36.093 90.595,30.999 C87.017,25.904 70.953,4.864 49.651,4.864 C28.394,4.864 10.025,25.672 5.672,30.999 Z" id="Shape"></path>
            </g>
        </g>
    </g>
</svg>