<svg xmlns="http://www.w3.org/2000/svg" width="40" height="40" fill="#fff"><path d="M39.356 5.8H.645C.3 5.8.001 6.1 0 6.455v22.322c0 .17.068.335.2.456s.285.2.456.2H7.1v9.933c.001.356.3.644.645.645H32.26c.356 0 .645-.3.645-.645v-9.932h6.45c.356 0 .645-.3.645-.645V6.455c0-.356-.288-.644-.644-.645zM8.4 21.937h23.226V38.7H8.4zm30.32 6.2h-5.8v-6.845c0-.356-.3-.645-.645-.645H7.745c-.356 0-.645.3-.645.645v6.84H1.3V7.1h37.4zM32.26 1.3c.356 0 .645-.3.645-.646S32.615 0 32.26 0H7.746c-.347.014-.62.3-.62.646s.274.632.62.645H32.26z"/></svg>