<svg xmlns="http://www.w3.org/2000/svg" fill="#ffffff" width="30" height="30"><path d="M24.446 26.945H5.554c-1.378 0-2.5-1.12-2.5-2.5v-18.9c0-1.38 1.122-2.5 2.5-2.5h18.893c1.378 0 2.5 1.12 2.5 2.5v18.89c-.001 1.378-1.122 2.5-2.5 2.5zM5.554 4.055a1.5 1.5 0 0 0-1.5 1.5v18.89a1.5 1.5 0 0 0 1.5 1.5h18.893a1.5 1.5 0 0 0 1.5-1.5V5.555a1.5 1.5 0 0 0-1.5-1.5H5.554z"/><path d="M21.344 13.73H8.656a.5.5 0 0 1-.5-.5V3.555a.5.5 0 0 1 .5-.5h12.688a.5.5 0 0 1 .5.5v9.674a.5.5 0 0 1-.5.5zm-12.188-1h11.688V4.055H9.156v8.674zm5.672-4.376h1v2.875h-1zm1.688 0h1v2.875h-1zm1.687 0h1v2.875h-1z"/></svg>